<?xml version="1.0" encoding="utf-8"?>
<!-- Generator: Adobe Illustrator 24.1.1, SVG Export Plug-In . SVG Version: 6.00 Build 0)  -->
<svg version="1.1" id="Layer_1" xmlns="http://www.w3.org/2000/svg" xmlns:xlink="http://www.w3.org/1999/xlink" x="0px" y="0px"
	 viewBox="0 0 512 512" style="enable-background:new 0 0 512 512;" xml:space="preserve">
<style type="text/css">
	.st0{fill:#346DA6;}
	.st1{fill:#FFFFFF;}
</style>
<g id="XMLID_1_">
	<path id="XMLID_3_" class="st0" d="M25.2,0h461.6c14,0,25.2,11.2,25.2,25.2v461.6c0,14-11.2,25.2-25.2,25.2H25.2
		C11.2,512,0,500.8,0,486.8V25.2C0,11.2,11.2,0,25.2,0z"/>
	<path id="XMLID_7_" class="st1" d="M187.5,374.9V218.2H139v156.7H187.5z M187.5,163.2c0-14-9.3-24.2-25.2-24.2
		c-14.9,0-25.2,10.3-25.2,24.2c0,14,9.3,24.2,24.2,24.2l0,0C177.2,187.5,187.5,176.3,187.5,163.2z M265.8,374.9v-89.5
		c0-4.7,0-9.3,1.9-13.1c3.7-9.3,12.1-19.6,27-19.6c19.6,0,30.8,11.2,30.8,32.6v89.5H374v-91.4c0-49.4-26.1-71.8-60.6-71.8
		c-28.9,0-41,15.9-48.5,27v-20.5h-48.5c0.9,14.9,0,157.6,0,157.6h49.4V374.9z"/>
</g>
</svg>
